# Blender v2.90.0 OBJ File: ''
# www.blender.org
mtllib box1.mtl
o Cube
v 2.000000 3.558501 -1.558501
v 2.000000 0.441499 -1.558501
v 2.000000 3.558501 1.558501
v 2.000000 0.441499 1.558501
v -1.562629 3.562629 -2.000000
v -1.562629 0.437371 -2.000000
v -1.567041 3.567041 2.000000
v -1.567041 0.432959 2.000000
v 1.562629 3.562629 -2.000000
v 1.562629 0.437371 -2.000000
v 1.567041 3.567041 2.000000
v 1.567041 0.432959 2.000000
v -2.000000 0.365933 1.634067
v -2.000000 3.634067 1.634067
v 1.495729 4.000000 1.495729
v 1.617382 0.000000 1.617382
v 1.617382 0.000000 -1.617382
v -2.000000 0.365933 -1.634067
v 1.495729 4.000000 -1.495729
v -2.000000 3.634067 -1.634067
v -1.617382 0.000000 -1.617382
v -1.617382 0.000000 1.617382
v -1.495729 4.000000 1.495729
v -1.495729 4.000000 -1.495729
v 2.000000 4.000000 2.000000
v -2.000000 4.000000 2.000000
v 2.000000 4.000000 -2.000000
v -2.000000 4.000000 -2.000000
v -2.000000 0.000000 -2.000000
v -2.000000 0.000000 2.000000
v 2.000000 0.000000 -2.000000
v 2.000000 0.000000 2.000000
vt 0.597406 0.527594
vt 0.402594 0.527594
vt 0.375000 0.500000
vt 0.625000 0.500000
vt 0.402594 0.722406
vt 0.597406 0.722406
vt 0.625000 0.750000
vt 0.375000 0.750000
vt 0.402060 0.972940
vt 0.597940 0.972940
vt 0.625000 1.000000
vt 0.375000 1.000000
vt 0.597940 0.777060
vt 0.402060 0.777060
vt 0.402336 0.277336
vt 0.402336 0.472664
vt 0.375000 0.250000
vt 0.597664 0.472664
vt 0.597664 0.277336
vt 0.625000 0.250000
vt 0.397871 0.022871
vt 0.397871 0.227129
vt 0.375000 0.000000
vt 0.602129 0.022871
vt 0.625000 0.000000
vt 0.602129 0.227129
vt 0.656517 0.718483
vt 0.843483 0.718483
vt 0.875000 0.750000
vt 0.656517 0.531517
vt 0.843483 0.531517
vt 0.875000 0.500000
vt 0.148914 0.523914
vt 0.148914 0.726086
vt 0.125000 0.750000
vt 0.125000 0.500000
vt 0.351086 0.523914
vt 0.351086 0.726086
vn 1.0000 0.0000 0.0000
vn 0.0000 0.0000 1.0000
vn 0.0000 0.0000 -1.0000
vn -1.0000 0.0000 0.0000
vn 0.0000 1.0000 0.0000
vn 0.0000 -1.0000 0.0000
usemtl Material
s off
f 1/1/1 2/2/1 31/3/1 27/4/1
f 4/5/1 3/6/1 25/7/1 32/8/1
f 3/6/1 1/1/1 27/4/1 25/7/1
f 2/2/1 4/5/1 32/8/1 31/3/1
f 8/9/2 7/10/2 26/11/2 30/12/2
f 11/13/2 12/14/2 32/8/2 25/7/2
f 7/10/2 11/13/2 25/7/2 26/11/2
f 12/14/2 8/9/2 30/12/2 32/8/2
f 6/15/3 10/16/3 31/3/3 29/17/3
f 10/16/3 9/18/3 27/4/3 31/3/3
f 5/19/3 6/15/3 29/17/3 28/20/3
f 9/18/3 5/19/3 28/20/3 27/4/3
f 13/21/4 18/22/4 29/17/4 30/23/4
f 14/24/4 13/21/4 30/23/4 26/25/4
f 18/22/4 20/26/4 28/20/4 29/17/4
f 20/26/4 14/24/4 26/25/4 28/20/4
f 15/27/5 23/28/5 26/29/5 25/7/5
f 19/30/5 15/27/5 25/7/5 27/4/5
f 23/28/5 24/31/5 28/32/5 26/29/5
f 24/31/5 19/30/5 27/4/5 28/32/5
f 21/33/6 22/34/6 30/35/6 29/36/6
f 17/37/6 21/33/6 29/36/6 31/3/6
f 22/34/6 16/38/6 32/8/6 30/35/6
f 16/38/6 17/37/6 31/3/6 32/8/6
usemtl Material.001
f 19/30/5 24/31/5 23/28/5 15/27/5
f 12/14/2 11/13/2 7/10/2 8/9/2
f 13/21/4 14/24/4 20/26/4 18/22/4
f 21/33/6 17/37/6 16/38/6 22/34/6
f 2/2/1 1/1/1 3/6/1 4/5/1
f 6/15/3 5/19/3 9/18/3 10/16/3
